solid ascii
  facet normal 1.000000e+000 0.000000e+000 1.665335e-016
    outer loop
      vertex   5.000000e-001 0.000000e+000 5.000000e-001
      vertex   5.000000e-001 0.000000e+000 -5.000000e-001
      vertex   5.000000e-001 3.000000e-002 5.000000e-001
    endloop
  endfacet
  facet normal 1.000000e+000 -0.000000e+000 1.665335e-016
    outer loop
      vertex   5.000000e-001 3.000000e-002 5.000000e-001
      vertex   5.000000e-001 0.000000e+000 -5.000000e-001
      vertex   5.000000e-001 3.000000e-002 -5.000000e-001
    endloop
  endfacet
  facet normal -3.885781e-016 -3.286920e-030 1.000000e+000
    outer loop
      vertex   -5.000000e-001 0.000000e+000 5.000000e-001
      vertex   5.000000e-001 0.000000e+000 5.000000e-001
      vertex   -5.000000e-001 3.000000e-002 5.000000e-001
    endloop
  endfacet
  facet normal -3.885781e-016 0.000000e+000 1.000000e+000
    outer loop
      vertex   -5.000000e-001 3.000000e-002 5.000000e-001
      vertex   5.000000e-001 0.000000e+000 5.000000e-001
      vertex   5.000000e-001 3.000000e-002 5.000000e-001
    endloop
  endfacet
  facet normal -1.000000e+000 1.850372e-015 -3.885781e-016
    outer loop
      vertex   -5.000000e-001 0.000000e+000 -5.000000e-001
      vertex   -5.000000e-001 0.000000e+000 5.000000e-001
      vertex   -5.000000e-001 3.000000e-002 -5.000000e-001
    endloop
  endfacet
  facet normal -1.000000e+000 -3.700743e-015 -5.551115e-016
    outer loop
      vertex   -5.000000e-001 3.000000e-002 -5.000000e-001
      vertex   -5.000000e-001 0.000000e+000 5.000000e-001
      vertex   -5.000000e-001 3.000000e-002 5.000000e-001
    endloop
  endfacet
  facet normal 3.330669e-016 0.000000e+000 -1.000000e+000
    outer loop
      vertex   5.000000e-001 0.000000e+000 -5.000000e-001
      vertex   -5.000000e-001 0.000000e+000 -5.000000e-001
      vertex   5.000000e-001 3.000000e-002 -5.000000e-001
    endloop
  endfacet
  facet normal 3.330669e-016 -6.162976e-031 -1.000000e+000
    outer loop
      vertex   5.000000e-001 3.000000e-002 -5.000000e-001
      vertex   -5.000000e-001 0.000000e+000 -5.000000e-001
      vertex   -5.000000e-001 3.000000e-002 -5.000000e-001
    endloop
  endfacet
  facet normal -0.000000e+000 1.000000e+000 -0.000000e+000
    outer loop
      vertex   -5.000000e-001 3.000000e-002 -5.000000e-001
      vertex   -5.000000e-001 3.000000e-002 5.000000e-001
      vertex   5.000000e-001 3.000000e-002 -5.000000e-001
    endloop
  endfacet
  facet normal 0.000000e+000 1.000000e+000 -0.000000e+000
    outer loop
      vertex   5.000000e-001 3.000000e-002 -5.000000e-001
      vertex   -5.000000e-001 3.000000e-002 5.000000e-001
      vertex   5.000000e-001 3.000000e-002 5.000000e-001
    endloop
  endfacet
  facet normal -0.000000e+000 -1.000000e+000 0.000000e+000
    outer loop
      vertex   5.000000e-001 0.000000e+000 -5.000000e-001
      vertex   5.000000e-001 0.000000e+000 5.000000e-001
      vertex   -5.000000e-001 0.000000e+000 -5.000000e-001
    endloop
  endfacet
  facet normal -0.000000e+000 -1.000000e+000 0.000000e+000
    outer loop
      vertex   -5.000000e-001 0.000000e+000 -5.000000e-001
      vertex   5.000000e-001 0.000000e+000 5.000000e-001
      vertex   -5.000000e-001 0.000000e+000 5.000000e-001
    endloop
  endfacet
endsolid
