solid ascii
  facet normal 0.000000e+000 0.000000e+000 -1.000000e+000
    outer loop
      vertex   -3.430223e-001 5.458507e-001 -1.000000e-001
      vertex   -4.844437e-001 6.872721e-001 -1.000000e-001
      vertex   -3.076670e-001 5.812061e-001 -1.000000e-001
    endloop
  endfacet
  facet normal 0.000000e+000 0.000000e+000 -1.000000e+000
    outer loop
      vertex   -3.076670e-001 5.812061e-001 -1.000000e-001
      vertex   -4.844437e-001 6.872721e-001 -1.000000e-001
      vertex   -4.490883e-001 7.226274e-001 -1.000000e-001
    endloop
  endfacet
  facet normal -7.071068e-001 7.071068e-001 0.000000e+000
    outer loop
      vertex   -4.844437e-001 6.872721e-001 1.000000e-001
      vertex   -4.490883e-001 7.226274e-001 1.000000e-001
      vertex   -4.844437e-001 6.872721e-001 -1.000000e-001
    endloop
  endfacet
  facet normal -7.071068e-001 7.071068e-001 0.000000e+000
    outer loop
      vertex   -4.844437e-001 6.872721e-001 -1.000000e-001
      vertex   -4.490883e-001 7.226274e-001 1.000000e-001
      vertex   -4.490883e-001 7.226274e-001 -1.000000e-001
    endloop
  endfacet
  facet normal 7.071068e-001 7.071068e-001 0.000000e+000
    outer loop
      vertex   -4.490883e-001 7.226274e-001 1.000000e-001
      vertex   -3.076670e-001 5.812061e-001 1.000000e-001
      vertex   -4.490883e-001 7.226274e-001 -1.000000e-001
    endloop
  endfacet
  facet normal 7.071068e-001 7.071068e-001 0.000000e+000
    outer loop
      vertex   -4.490883e-001 7.226274e-001 -1.000000e-001
      vertex   -3.076670e-001 5.812061e-001 1.000000e-001
      vertex   -3.076670e-001 5.812061e-001 -1.000000e-001
    endloop
  endfacet
  facet normal 7.071068e-001 -7.071068e-001 0.000000e+000
    outer loop
      vertex   -3.076670e-001 5.812061e-001 1.000000e-001
      vertex   -3.430223e-001 5.458507e-001 1.000000e-001
      vertex   -3.076670e-001 5.812061e-001 -1.000000e-001
    endloop
  endfacet
  facet normal 7.071068e-001 -7.071068e-001 0.000000e+000
    outer loop
      vertex   -3.076670e-001 5.812061e-001 -1.000000e-001
      vertex   -3.430223e-001 5.458507e-001 1.000000e-001
      vertex   -3.430223e-001 5.458507e-001 -1.000000e-001
    endloop
  endfacet
  facet normal -7.071068e-001 -7.071068e-001 0.000000e+000
    outer loop
      vertex   -3.430223e-001 5.458507e-001 1.000000e-001
      vertex   -4.844437e-001 6.872721e-001 1.000000e-001
      vertex   -3.430223e-001 5.458507e-001 -1.000000e-001
    endloop
  endfacet
  facet normal -7.071068e-001 -7.071068e-001 -0.000000e+000
    outer loop
      vertex   -3.430223e-001 5.458507e-001 -1.000000e-001
      vertex   -4.844437e-001 6.872721e-001 1.000000e-001
      vertex   -4.844437e-001 6.872721e-001 -1.000000e-001
    endloop
  endfacet
  facet normal 0.000000e+000 -0.000000e+000 1.000000e+000
    outer loop
      vertex   -3.430223e-001 5.458507e-001 1.000000e-001
      vertex   -3.076670e-001 5.812061e-001 1.000000e-001
      vertex   -4.844437e-001 6.872721e-001 1.000000e-001
    endloop
  endfacet
  facet normal -0.000000e+000 -0.000000e+000 1.000000e+000
    outer loop
      vertex   -4.844437e-001 6.872721e-001 1.000000e-001
      vertex   -3.076670e-001 5.812061e-001 1.000000e-001
      vertex   -4.490883e-001 7.226274e-001 1.000000e-001
    endloop
  endfacet
endsolid
