solid ascii
  facet normal 1.000000e+000 0.000000e+000 -0.000000e+000
    outer loop
      vertex   3.200000e-001 3.000000e-002 6.200000e-001
      vertex   3.200000e-001 3.000000e-002 7.800000e-001
      vertex   3.200000e-001 -2.000000e-002 6.200000e-001
    endloop
  endfacet
  facet normal 1.000000e+000 0.000000e+000 -0.000000e+000
    outer loop
      vertex   3.200000e-001 -2.000000e-002 6.200000e-001
      vertex   3.200000e-001 3.000000e-002 7.800000e-001
      vertex   3.200000e-001 -2.000000e-002 7.800000e-001
    endloop
  endfacet
  facet normal 1.000000e+000 0.000000e+000 -0.000000e+000
    outer loop
      vertex   3.200000e-001 3.000000e-002 2.200000e-001
      vertex   3.200000e-001 3.000000e-002 3.800000e-001
      vertex   3.200000e-001 0.000000e+000 2.200000e-001
    endloop
  endfacet
  facet normal 1.000000e+000 0.000000e+000 -0.000000e+000
    outer loop
      vertex   3.200000e-001 0.000000e+000 2.200000e-001
      vertex   3.200000e-001 3.000000e-002 3.800000e-001
      vertex   3.200000e-001 0.000000e+000 3.800000e-001
    endloop
  endfacet
  facet normal 1.000000e+000 0.000000e+000 -0.000000e+000
    outer loop
      vertex   3.200000e-001 3.000000e-002 2.000000e-002
      vertex   3.200000e-001 3.000000e-002 1.800000e-001
      vertex   3.200000e-001 1.000000e-002 2.000000e-002
    endloop
  endfacet
  facet normal 1.000000e+000 0.000000e+000 -0.000000e+000
    outer loop
      vertex   3.200000e-001 1.000000e-002 2.000000e-002
      vertex   3.200000e-001 3.000000e-002 1.800000e-001
      vertex   3.200000e-001 1.000000e-002 1.800000e-001
    endloop
  endfacet
  facet normal 1.000000e+000 0.000000e+000 -0.000000e+000
    outer loop
      vertex   3.200000e-001 3.000000e-002 4.200000e-001
      vertex   3.200000e-001 3.000000e-002 5.800000e-001
      vertex   3.200000e-001 -1.000000e-002 4.200000e-001
    endloop
  endfacet
  facet normal 1.000000e+000 0.000000e+000 -0.000000e+000
    outer loop
      vertex   3.200000e-001 -1.000000e-002 4.200000e-001
      vertex   3.200000e-001 3.000000e-002 5.800000e-001
      vertex   3.200000e-001 -1.000000e-002 5.800000e-001
    endloop
  endfacet
  facet normal 1.000000e+000 0.000000e+000 -0.000000e+000
    outer loop
      vertex   3.200000e-001 3.000000e-002 8.200000e-001
      vertex   3.200000e-001 3.000000e-002 9.800000e-001
      vertex   3.200000e-001 -3.000000e-002 8.200000e-001
    endloop
  endfacet
  facet normal 1.000000e+000 0.000000e+000 -0.000000e+000
    outer loop
      vertex   3.200000e-001 -3.000000e-002 8.200000e-001
      vertex   3.200000e-001 3.000000e-002 9.800000e-001
      vertex   3.200000e-001 -3.000000e-002 9.800000e-001
    endloop
  endfacet
  facet normal 3.846154e-001 -9.230769e-001 0.000000e+000
    outer loop
      vertex   5.500000e-001 0.000000e+000 0.000000e+000
      vertex   5.500000e-001 0.000000e+000 1.000000e+000
      vertex   4.300000e-001 -5.000000e-002 0.000000e+000
    endloop
  endfacet
  facet normal 3.846154e-001 -9.230769e-001 0.000000e+000
    outer loop
      vertex   4.300000e-001 -5.000000e-002 0.000000e+000
      vertex   5.500000e-001 0.000000e+000 1.000000e+000
      vertex   4.300000e-001 -5.000000e-002 1.000000e+000
    endloop
  endfacet
  facet normal -0.000000e+000 -1.000000e+000 0.000000e+000
    outer loop
      vertex   4.300000e-001 -5.000000e-002 0.000000e+000
      vertex   4.300000e-001 -5.000000e-002 1.000000e+000
      vertex   3.300000e-001 -5.000000e-002 0.000000e+000
    endloop
  endfacet
  facet normal 0.000000e+000 -1.000000e+000 0.000000e+000
    outer loop
      vertex   3.300000e-001 -5.000000e-002 0.000000e+000
      vertex   4.300000e-001 -5.000000e-002 1.000000e+000
      vertex   3.300000e-001 -5.000000e-002 1.000000e+000
    endloop
  endfacet
  facet normal 0.000000e+000 -0.000000e+000 1.000000e+000
    outer loop
      vertex   3.300000e-001 -5.000000e-002 1.000000e+000
      vertex   4.300000e-001 -5.000000e-002 1.000000e+000
      vertex   2.500000e-001 0.000000e+000 1.000000e+000
    endloop
  endfacet
  facet normal -0.000000e+000 0.000000e+000 1.000000e+000
    outer loop
      vertex   2.500000e-001 0.000000e+000 1.000000e+000
      vertex   4.300000e-001 -5.000000e-002 1.000000e+000
      vertex   5.500000e-001 0.000000e+000 1.000000e+000
    endloop
  endfacet
  facet normal -0.000000e+000 0.000000e+000 1.000000e+000
    outer loop
      vertex   5.500000e-001 3.000000e-002 1.000000e+000
      vertex   2.500000e-001 0.000000e+000 1.000000e+000
      vertex   5.500000e-001 0.000000e+000 1.000000e+000
    endloop
  endfacet
  facet normal 0.000000e+000 0.000000e+000 1.000000e+000
    outer loop
      vertex   5.500000e-001 3.000000e-002 1.000000e+000
      vertex   0.000000e+000 3.000000e-002 1.000000e+000
      vertex   2.500000e-001 0.000000e+000 1.000000e+000
    endloop
  endfacet
  facet normal 0.000000e+000 0.000000e+000 1.000000e+000
    outer loop
      vertex   2.500000e-001 0.000000e+000 1.000000e+000
      vertex   0.000000e+000 3.000000e-002 1.000000e+000
      vertex   0.000000e+000 0.000000e+000 1.000000e+000
    endloop
  endfacet
  facet normal -5.299989e-001 -8.479983e-001 0.000000e+000
    outer loop
      vertex   3.300000e-001 -5.000000e-002 0.000000e+000
      vertex   3.300000e-001 -5.000000e-002 1.000000e+000
      vertex   2.500000e-001 0.000000e+000 0.000000e+000
    endloop
  endfacet
  facet normal -5.299989e-001 -8.479983e-001 0.000000e+000
    outer loop
      vertex   2.500000e-001 0.000000e+000 0.000000e+000
      vertex   3.300000e-001 -5.000000e-002 1.000000e+000
      vertex   2.500000e-001 0.000000e+000 1.000000e+000
    endloop
  endfacet
  facet normal 1.000000e+000 -0.000000e+000 0.000000e+000
    outer loop
      vertex   5.500000e-001 0.000000e+000 1.000000e+000
      vertex   5.500000e-001 0.000000e+000 0.000000e+000
      vertex   5.500000e-001 3.000000e-002 1.000000e+000
    endloop
  endfacet
  facet normal 1.000000e+000 -0.000000e+000 0.000000e+000
    outer loop
      vertex   5.500000e-001 3.000000e-002 1.000000e+000
      vertex   5.500000e-001 0.000000e+000 0.000000e+000
      vertex   5.500000e-001 3.000000e-002 0.000000e+000
    endloop
  endfacet
  facet normal 0.000000e+000 0.000000e+000 1.000000e+000
    outer loop
      vertex   4.200000e-001 3.000000e-002 2.000000e-002
      vertex   3.200000e-001 3.000000e-002 2.000000e-002
      vertex   4.200000e-001 1.000000e-002 2.000000e-002
    endloop
  endfacet
  facet normal 0.000000e+000 0.000000e+000 1.000000e+000
    outer loop
      vertex   4.200000e-001 1.000000e-002 2.000000e-002
      vertex   3.200000e-001 3.000000e-002 2.000000e-002
      vertex   3.200000e-001 1.000000e-002 2.000000e-002
    endloop
  endfacet
  facet normal -2.775558e-016 0.000000e+000 -1.000000e+000
    outer loop
      vertex   3.200000e-001 3.000000e-002 1.800000e-001
      vertex   4.200000e-001 3.000000e-002 1.800000e-001
      vertex   3.200000e-001 1.000000e-002 1.800000e-001
    endloop
  endfacet
  facet normal -2.775558e-016 -0.000000e+000 -1.000000e+000
    outer loop
      vertex   3.200000e-001 1.000000e-002 1.800000e-001
      vertex   4.200000e-001 3.000000e-002 1.800000e-001
      vertex   4.200000e-001 1.000000e-002 1.800000e-001
    endloop
  endfacet
  facet normal -1.000000e+000 -0.000000e+000 -0.000000e+000
    outer loop
      vertex   4.200000e-001 3.000000e-002 1.800000e-001
      vertex   4.200000e-001 3.000000e-002 2.000000e-002
      vertex   4.200000e-001 1.000000e-002 1.800000e-001
    endloop
  endfacet
  facet normal -1.000000e+000 -0.000000e+000 -0.000000e+000
    outer loop
      vertex   4.200000e-001 1.000000e-002 1.800000e-001
      vertex   4.200000e-001 3.000000e-002 2.000000e-002
      vertex   4.200000e-001 1.000000e-002 2.000000e-002
    endloop
  endfacet
  facet normal 0.000000e+000 1.000000e+000 0.000000e+000
    outer loop
      vertex   4.200000e-001 1.000000e-002 1.800000e-001
      vertex   4.200000e-001 1.000000e-002 2.000000e-002
      vertex   3.200000e-001 1.000000e-002 1.800000e-001
    endloop
  endfacet
  facet normal 0.000000e+000 1.000000e+000 0.000000e+000
    outer loop
      vertex   3.200000e-001 1.000000e-002 1.800000e-001
      vertex   4.200000e-001 1.000000e-002 2.000000e-002
      vertex   3.200000e-001 1.000000e-002 2.000000e-002
    endloop
  endfacet
  facet normal 2.775558e-016 0.000000e+000 1.000000e+000
    outer loop
      vertex   4.200000e-001 3.000000e-002 2.200000e-001
      vertex   3.200000e-001 3.000000e-002 2.200000e-001
      vertex   4.200000e-001 0.000000e+000 2.200000e-001
    endloop
  endfacet
  facet normal 2.775558e-016 0.000000e+000 1.000000e+000
    outer loop
      vertex   4.200000e-001 0.000000e+000 2.200000e-001
      vertex   3.200000e-001 3.000000e-002 2.200000e-001
      vertex   3.200000e-001 0.000000e+000 2.200000e-001
    endloop
  endfacet
  facet normal 0.000000e+000 -0.000000e+000 -1.000000e+000
    outer loop
      vertex   3.200000e-001 3.000000e-002 3.800000e-001
      vertex   4.200000e-001 3.000000e-002 3.800000e-001
      vertex   3.200000e-001 0.000000e+000 3.800000e-001
    endloop
  endfacet
  facet normal 0.000000e+000 0.000000e+000 -1.000000e+000
    outer loop
      vertex   3.200000e-001 0.000000e+000 3.800000e-001
      vertex   4.200000e-001 3.000000e-002 3.800000e-001
      vertex   4.200000e-001 0.000000e+000 3.800000e-001
    endloop
  endfacet
  facet normal -1.000000e+000 -0.000000e+000 -0.000000e+000
    outer loop
      vertex   4.200000e-001 3.000000e-002 3.800000e-001
      vertex   4.200000e-001 3.000000e-002 2.200000e-001
      vertex   4.200000e-001 0.000000e+000 3.800000e-001
    endloop
  endfacet
  facet normal -1.000000e+000 -0.000000e+000 -0.000000e+000
    outer loop
      vertex   4.200000e-001 0.000000e+000 3.800000e-001
      vertex   4.200000e-001 3.000000e-002 2.200000e-001
      vertex   4.200000e-001 0.000000e+000 2.200000e-001
    endloop
  endfacet
  facet normal 0.000000e+000 1.000000e+000 0.000000e+000
    outer loop
      vertex   4.200000e-001 0.000000e+000 3.800000e-001
      vertex   4.200000e-001 0.000000e+000 2.200000e-001
      vertex   3.200000e-001 0.000000e+000 3.800000e-001
    endloop
  endfacet
  facet normal 0.000000e+000 1.000000e+000 0.000000e+000
    outer loop
      vertex   3.200000e-001 0.000000e+000 3.800000e-001
      vertex   4.200000e-001 0.000000e+000 2.200000e-001
      vertex   3.200000e-001 0.000000e+000 2.200000e-001
    endloop
  endfacet
  facet normal 0.000000e+000 0.000000e+000 1.000000e+000
    outer loop
      vertex   4.200000e-001 3.000000e-002 4.200000e-001
      vertex   3.200000e-001 3.000000e-002 4.200000e-001
      vertex   4.200000e-001 -1.000000e-002 4.200000e-001
    endloop
  endfacet
  facet normal 0.000000e+000 0.000000e+000 1.000000e+000
    outer loop
      vertex   4.200000e-001 -1.000000e-002 4.200000e-001
      vertex   3.200000e-001 3.000000e-002 4.200000e-001
      vertex   3.200000e-001 -1.000000e-002 4.200000e-001
    endloop
  endfacet
  facet normal 0.000000e+000 -0.000000e+000 -1.000000e+000
    outer loop
      vertex   3.200000e-001 3.000000e-002 5.800000e-001
      vertex   4.200000e-001 3.000000e-002 5.800000e-001
      vertex   3.200000e-001 -1.000000e-002 5.800000e-001
    endloop
  endfacet
  facet normal 0.000000e+000 0.000000e+000 -1.000000e+000
    outer loop
      vertex   3.200000e-001 -1.000000e-002 5.800000e-001
      vertex   4.200000e-001 3.000000e-002 5.800000e-001
      vertex   4.200000e-001 -1.000000e-002 5.800000e-001
    endloop
  endfacet
  facet normal -1.000000e+000 -0.000000e+000 -0.000000e+000
    outer loop
      vertex   4.200000e-001 3.000000e-002 5.800000e-001
      vertex   4.200000e-001 3.000000e-002 4.200000e-001
      vertex   4.200000e-001 -1.000000e-002 5.800000e-001
    endloop
  endfacet
  facet normal -1.000000e+000 -0.000000e+000 -0.000000e+000
    outer loop
      vertex   4.200000e-001 -1.000000e-002 5.800000e-001
      vertex   4.200000e-001 3.000000e-002 4.200000e-001
      vertex   4.200000e-001 -1.000000e-002 4.200000e-001
    endloop
  endfacet
  facet normal 0.000000e+000 1.000000e+000 0.000000e+000
    outer loop
      vertex   4.200000e-001 -1.000000e-002 5.800000e-001
      vertex   4.200000e-001 -1.000000e-002 4.200000e-001
      vertex   3.200000e-001 -1.000000e-002 5.800000e-001
    endloop
  endfacet
  facet normal 0.000000e+000 1.000000e+000 0.000000e+000
    outer loop
      vertex   3.200000e-001 -1.000000e-002 5.800000e-001
      vertex   4.200000e-001 -1.000000e-002 4.200000e-001
      vertex   3.200000e-001 -1.000000e-002 4.200000e-001
    endloop
  endfacet
  facet normal 0.000000e+000 0.000000e+000 1.000000e+000
    outer loop
      vertex   4.200000e-001 3.000000e-002 6.200000e-001
      vertex   3.200000e-001 3.000000e-002 6.200000e-001
      vertex   4.200000e-001 -2.000000e-002 6.200000e-001
    endloop
  endfacet
  facet normal 0.000000e+000 0.000000e+000 1.000000e+000
    outer loop
      vertex   4.200000e-001 -2.000000e-002 6.200000e-001
      vertex   3.200000e-001 3.000000e-002 6.200000e-001
      vertex   3.200000e-001 -2.000000e-002 6.200000e-001
    endloop
  endfacet
  facet normal 0.000000e+000 -0.000000e+000 -1.000000e+000
    outer loop
      vertex   3.200000e-001 3.000000e-002 7.800000e-001
      vertex   4.200000e-001 3.000000e-002 7.800000e-001
      vertex   3.200000e-001 -2.000000e-002 7.800000e-001
    endloop
  endfacet
  facet normal 0.000000e+000 0.000000e+000 -1.000000e+000
    outer loop
      vertex   3.200000e-001 -2.000000e-002 7.800000e-001
      vertex   4.200000e-001 3.000000e-002 7.800000e-001
      vertex   4.200000e-001 -2.000000e-002 7.800000e-001
    endloop
  endfacet
  facet normal -1.000000e+000 -0.000000e+000 -0.000000e+000
    outer loop
      vertex   4.200000e-001 3.000000e-002 7.800000e-001
      vertex   4.200000e-001 3.000000e-002 6.200000e-001
      vertex   4.200000e-001 -2.000000e-002 7.800000e-001
    endloop
  endfacet
  facet normal -1.000000e+000 -0.000000e+000 -0.000000e+000
    outer loop
      vertex   4.200000e-001 -2.000000e-002 7.800000e-001
      vertex   4.200000e-001 3.000000e-002 6.200000e-001
      vertex   4.200000e-001 -2.000000e-002 6.200000e-001
    endloop
  endfacet
  facet normal 0.000000e+000 1.000000e+000 0.000000e+000
    outer loop
      vertex   4.200000e-001 -2.000000e-002 7.800000e-001
      vertex   4.200000e-001 -2.000000e-002 6.200000e-001
      vertex   3.200000e-001 -2.000000e-002 7.800000e-001
    endloop
  endfacet
  facet normal 0.000000e+000 1.000000e+000 0.000000e+000
    outer loop
      vertex   3.200000e-001 -2.000000e-002 7.800000e-001
      vertex   4.200000e-001 -2.000000e-002 6.200000e-001
      vertex   3.200000e-001 -2.000000e-002 6.200000e-001
    endloop
  endfacet
  facet normal 0.000000e+000 0.000000e+000 1.000000e+000
    outer loop
      vertex   4.200000e-001 3.000000e-002 8.200000e-001
      vertex   3.200000e-001 3.000000e-002 8.200000e-001
      vertex   4.200000e-001 -3.000000e-002 8.200000e-001
    endloop
  endfacet
  facet normal 0.000000e+000 0.000000e+000 1.000000e+000
    outer loop
      vertex   4.200000e-001 -3.000000e-002 8.200000e-001
      vertex   3.200000e-001 3.000000e-002 8.200000e-001
      vertex   3.200000e-001 -3.000000e-002 8.200000e-001
    endloop
  endfacet
  facet normal -0.000000e+000 1.000000e+000 0.000000e+000
    outer loop
      vertex   3.200000e-001 -3.000000e-002 8.200000e-001
      vertex   3.200000e-001 -3.000000e-002 9.800000e-001
      vertex   4.200000e-001 -3.000000e-002 8.200000e-001
    endloop
  endfacet
  facet normal 0.000000e+000 1.000000e+000 -0.000000e+000
    outer loop
      vertex   4.200000e-001 -3.000000e-002 8.200000e-001
      vertex   3.200000e-001 -3.000000e-002 9.800000e-001
      vertex   4.200000e-001 -3.000000e-002 9.800000e-001
    endloop
  endfacet
  facet normal -1.000000e+000 0.000000e+000 0.000000e+000
    outer loop
      vertex   4.200000e-001 -3.000000e-002 8.200000e-001
      vertex   4.200000e-001 -3.000000e-002 9.800000e-001
      vertex   4.200000e-001 3.000000e-002 8.200000e-001
    endloop
  endfacet
  facet normal -1.000000e+000 0.000000e+000 0.000000e+000
    outer loop
      vertex   4.200000e-001 3.000000e-002 8.200000e-001
      vertex   4.200000e-001 -3.000000e-002 9.800000e-001
      vertex   4.200000e-001 3.000000e-002 9.800000e-001
    endloop
  endfacet
  facet normal 0.000000e+000 -0.000000e+000 -1.000000e+000
    outer loop
      vertex   3.200000e-001 3.000000e-002 9.800000e-001
      vertex   4.200000e-001 3.000000e-002 9.800000e-001
      vertex   3.200000e-001 -3.000000e-002 9.800000e-001
    endloop
  endfacet
  facet normal 0.000000e+000 0.000000e+000 -1.000000e+000
    outer loop
      vertex   3.200000e-001 -3.000000e-002 9.800000e-001
      vertex   4.200000e-001 3.000000e-002 9.800000e-001
      vertex   4.200000e-001 -3.000000e-002 9.800000e-001
    endloop
  endfacet
  facet normal -1.000000e+000 0.000000e+000 0.000000e+000
    outer loop
      vertex   0.000000e+000 0.000000e+000 0.000000e+000
      vertex   0.000000e+000 0.000000e+000 1.000000e+000
      vertex   0.000000e+000 3.000000e-002 0.000000e+000
    endloop
  endfacet
  facet normal -1.000000e+000 0.000000e+000 0.000000e+000
    outer loop
      vertex   0.000000e+000 3.000000e-002 0.000000e+000
      vertex   0.000000e+000 0.000000e+000 1.000000e+000
      vertex   0.000000e+000 3.000000e-002 1.000000e+000
    endloop
  endfacet
  facet normal 0.000000e+000 1.000000e+000 -0.000000e+000
    outer loop
      vertex   4.200000e-001 3.000000e-002 6.200000e-001
      vertex   3.200000e-001 3.000000e-002 5.800000e-001
      vertex   3.200000e-001 3.000000e-002 6.200000e-001
    endloop
  endfacet
  facet normal 0.000000e+000 1.000000e+000 0.000000e+000
    outer loop
      vertex   4.200000e-001 3.000000e-002 6.200000e-001
      vertex   4.200000e-001 3.000000e-002 5.800000e-001
      vertex   3.200000e-001 3.000000e-002 5.800000e-001
    endloop
  endfacet
  facet normal -0.000000e+000 1.000000e+000 0.000000e+000
    outer loop
      vertex   4.200000e-001 3.000000e-002 6.200000e-001
      vertex   5.500000e-001 3.000000e-002 1.000000e+000
      vertex   4.200000e-001 3.000000e-002 5.800000e-001
    endloop
  endfacet
  facet normal 0.000000e+000 1.000000e+000 0.000000e+000
    outer loop
      vertex   4.200000e-001 3.000000e-002 6.200000e-001
      vertex   4.200000e-001 3.000000e-002 7.800000e-001
      vertex   5.500000e-001 3.000000e-002 1.000000e+000
    endloop
  endfacet
  facet normal 0.000000e+000 1.000000e+000 0.000000e+000
    outer loop
      vertex   5.500000e-001 3.000000e-002 1.000000e+000
      vertex   4.200000e-001 3.000000e-002 7.800000e-001
      vertex   4.200000e-001 3.000000e-002 8.200000e-001
    endloop
  endfacet
  facet normal -0.000000e+000 1.000000e+000 0.000000e+000
    outer loop
      vertex   4.200000e-001 3.000000e-002 9.800000e-001
      vertex   5.500000e-001 3.000000e-002 1.000000e+000
      vertex   4.200000e-001 3.000000e-002 8.200000e-001
    endloop
  endfacet
  facet normal 0.000000e+000 1.000000e+000 -0.000000e+000
    outer loop
      vertex   4.200000e-001 3.000000e-002 9.800000e-001
      vertex   3.200000e-001 3.000000e-002 9.800000e-001
      vertex   5.500000e-001 3.000000e-002 1.000000e+000
    endloop
  endfacet
  facet normal 0.000000e+000 1.000000e+000 0.000000e+000
    outer loop
      vertex   5.500000e-001 3.000000e-002 1.000000e+000
      vertex   3.200000e-001 3.000000e-002 9.800000e-001
      vertex   0.000000e+000 3.000000e-002 1.000000e+000
    endloop
  endfacet
  facet normal 0.000000e+000 1.000000e+000 0.000000e+000
    outer loop
      vertex   0.000000e+000 3.000000e-002 1.000000e+000
      vertex   3.200000e-001 3.000000e-002 9.800000e-001
      vertex   3.200000e-001 3.000000e-002 8.200000e-001
    endloop
  endfacet
  facet normal 0.000000e+000 1.000000e+000 0.000000e+000
    outer loop
      vertex   3.200000e-001 3.000000e-002 7.800000e-001
      vertex   3.200000e-001 3.000000e-002 8.200000e-001
      vertex   4.200000e-001 3.000000e-002 8.200000e-001
    endloop
  endfacet
  facet normal 0.000000e+000 1.000000e+000 -0.000000e+000
    outer loop
      vertex   4.200000e-001 3.000000e-002 7.800000e-001
      vertex   3.200000e-001 3.000000e-002 7.800000e-001
      vertex   4.200000e-001 3.000000e-002 8.200000e-001
    endloop
  endfacet
  facet normal 0.000000e+000 1.000000e+000 0.000000e+000
    outer loop
      vertex   3.200000e-001 3.000000e-002 8.200000e-001
      vertex   3.200000e-001 3.000000e-002 7.800000e-001
      vertex   0.000000e+000 3.000000e-002 1.000000e+000
    endloop
  endfacet
  facet normal 0.000000e+000 1.000000e+000 0.000000e+000
    outer loop
      vertex   0.000000e+000 3.000000e-002 1.000000e+000
      vertex   3.200000e-001 3.000000e-002 7.800000e-001
      vertex   3.200000e-001 3.000000e-002 6.200000e-001
    endloop
  endfacet
  facet normal -0.000000e+000 1.000000e+000 -0.000000e+000
    outer loop
      vertex   3.200000e-001 3.000000e-002 5.800000e-001
      vertex   0.000000e+000 3.000000e-002 1.000000e+000
      vertex   3.200000e-001 3.000000e-002 6.200000e-001
    endloop
  endfacet
  facet normal 0.000000e+000 1.000000e+000 -0.000000e+000
    outer loop
      vertex   3.200000e-001 3.000000e-002 5.800000e-001
      vertex   0.000000e+000 3.000000e-002 0.000000e+000
      vertex   0.000000e+000 3.000000e-002 1.000000e+000
    endloop
  endfacet
  facet normal 0.000000e+000 1.000000e+000 0.000000e+000
    outer loop
      vertex   3.200000e-001 3.000000e-002 5.800000e-001
      vertex   3.200000e-001 3.000000e-002 4.200000e-001
      vertex   0.000000e+000 3.000000e-002 0.000000e+000
    endloop
  endfacet
  facet normal -0.000000e+000 1.000000e+000 0.000000e+000
    outer loop
      vertex   0.000000e+000 3.000000e-002 0.000000e+000
      vertex   3.200000e-001 3.000000e-002 4.200000e-001
      vertex   3.200000e-001 3.000000e-002 3.800000e-001
    endloop
  endfacet
  facet normal 0.000000e+000 1.000000e+000 -0.000000e+000
    outer loop
      vertex   3.200000e-001 3.000000e-002 2.200000e-001
      vertex   0.000000e+000 3.000000e-002 0.000000e+000
      vertex   3.200000e-001 3.000000e-002 3.800000e-001
    endloop
  endfacet
  facet normal 0.000000e+000 1.000000e+000 0.000000e+000
    outer loop
      vertex   3.200000e-001 3.000000e-002 2.200000e-001
      vertex   3.200000e-001 3.000000e-002 1.800000e-001
      vertex   0.000000e+000 3.000000e-002 0.000000e+000
    endloop
  endfacet
  facet normal 0.000000e+000 1.000000e+000 0.000000e+000
    outer loop
      vertex   3.200000e-001 3.000000e-002 2.200000e-001
      vertex   4.200000e-001 3.000000e-002 2.200000e-001
      vertex   3.200000e-001 3.000000e-002 1.800000e-001
    endloop
  endfacet
  facet normal -0.000000e+000 1.000000e+000 0.000000e+000
    outer loop
      vertex   3.200000e-001 3.000000e-002 1.800000e-001
      vertex   4.200000e-001 3.000000e-002 2.200000e-001
      vertex   4.200000e-001 3.000000e-002 1.800000e-001
    endloop
  endfacet
  facet normal -0.000000e+000 1.000000e+000 0.000000e+000
    outer loop
      vertex   4.200000e-001 3.000000e-002 1.800000e-001
      vertex   4.200000e-001 3.000000e-002 2.200000e-001
      vertex   5.500000e-001 3.000000e-002 0.000000e+000
    endloop
  endfacet
  facet normal 0.000000e+000 1.000000e+000 0.000000e+000
    outer loop
      vertex   4.200000e-001 3.000000e-002 2.000000e-002
      vertex   5.500000e-001 3.000000e-002 0.000000e+000
      vertex   3.200000e-001 3.000000e-002 2.000000e-002
    endloop
  endfacet
  facet normal -0.000000e+000 1.000000e+000 0.000000e+000
    outer loop
      vertex   4.200000e-001 3.000000e-002 2.000000e-002
      vertex   4.200000e-001 3.000000e-002 1.800000e-001
      vertex   5.500000e-001 3.000000e-002 0.000000e+000
    endloop
  endfacet
  facet normal -0.000000e+000 1.000000e+000 0.000000e+000
    outer loop
      vertex   4.200000e-001 3.000000e-002 2.200000e-001
      vertex   4.200000e-001 3.000000e-002 3.800000e-001
      vertex   5.500000e-001 3.000000e-002 0.000000e+000
    endloop
  endfacet
  facet normal 0.000000e+000 1.000000e+000 -0.000000e+000
    outer loop
      vertex   5.500000e-001 3.000000e-002 0.000000e+000
      vertex   4.200000e-001 3.000000e-002 3.800000e-001
      vertex   4.200000e-001 3.000000e-002 4.200000e-001
    endloop
  endfacet
  facet normal 0.000000e+000 1.000000e+000 0.000000e+000
    outer loop
      vertex   4.200000e-001 3.000000e-002 5.800000e-001
      vertex   5.500000e-001 3.000000e-002 0.000000e+000
      vertex   4.200000e-001 3.000000e-002 4.200000e-001
    endloop
  endfacet
  facet normal -0.000000e+000 1.000000e+000 0.000000e+000
    outer loop
      vertex   4.200000e-001 3.000000e-002 5.800000e-001
      vertex   5.500000e-001 3.000000e-002 1.000000e+000
      vertex   5.500000e-001 3.000000e-002 0.000000e+000
    endloop
  endfacet
  facet normal 0.000000e+000 1.000000e+000 -0.000000e+000
    outer loop
      vertex   4.200000e-001 3.000000e-002 3.800000e-001
      vertex   3.200000e-001 3.000000e-002 3.800000e-001
      vertex   4.200000e-001 3.000000e-002 4.200000e-001
    endloop
  endfacet
  facet normal 0.000000e+000 1.000000e+000 -0.000000e+000
    outer loop
      vertex   4.200000e-001 3.000000e-002 4.200000e-001
      vertex   3.200000e-001 3.000000e-002 3.800000e-001
      vertex   3.200000e-001 3.000000e-002 4.200000e-001
    endloop
  endfacet
  facet normal 0.000000e+000 1.000000e+000 0.000000e+000
    outer loop
      vertex   3.200000e-001 3.000000e-002 1.800000e-001
      vertex   3.200000e-001 3.000000e-002 2.000000e-002
      vertex   0.000000e+000 3.000000e-002 0.000000e+000
    endloop
  endfacet
  facet normal -0.000000e+000 1.000000e+000 0.000000e+000
    outer loop
      vertex   0.000000e+000 3.000000e-002 0.000000e+000
      vertex   3.200000e-001 3.000000e-002 2.000000e-002
      vertex   5.500000e-001 3.000000e-002 0.000000e+000
    endloop
  endfacet
  facet normal -0.000000e+000 -1.000000e+000 -0.000000e+000
    outer loop
      vertex   2.500000e-001 0.000000e+000 1.000000e+000
      vertex   0.000000e+000 0.000000e+000 1.000000e+000
      vertex   2.500000e-001 0.000000e+000 0.000000e+000
    endloop
  endfacet
  facet normal -0.000000e+000 -1.000000e+000 -0.000000e+000
    outer loop
      vertex   2.500000e-001 0.000000e+000 0.000000e+000
      vertex   0.000000e+000 0.000000e+000 1.000000e+000
      vertex   0.000000e+000 0.000000e+000 0.000000e+000
    endloop
  endfacet
  facet normal -0.000000e+000 -0.000000e+000 -1.000000e+000
    outer loop
      vertex   5.500000e-001 3.000000e-002 0.000000e+000
      vertex   5.500000e-001 0.000000e+000 0.000000e+000
      vertex   2.500000e-001 0.000000e+000 0.000000e+000
    endloop
  endfacet
  facet normal -0.000000e+000 -0.000000e+000 -1.000000e+000
    outer loop
      vertex   0.000000e+000 3.000000e-002 0.000000e+000
      vertex   2.500000e-001 0.000000e+000 0.000000e+000
      vertex   0.000000e+000 0.000000e+000 0.000000e+000
    endloop
  endfacet
  facet normal 0.000000e+000 -0.000000e+000 -1.000000e+000
    outer loop
      vertex   0.000000e+000 3.000000e-002 0.000000e+000
      vertex   5.500000e-001 3.000000e-002 0.000000e+000
      vertex   2.500000e-001 0.000000e+000 0.000000e+000
    endloop
  endfacet
  facet normal 0.000000e+000 0.000000e+000 -1.000000e+000
    outer loop
      vertex   3.300000e-001 -5.000000e-002 0.000000e+000
      vertex   2.500000e-001 0.000000e+000 0.000000e+000
      vertex   4.300000e-001 -5.000000e-002 0.000000e+000
    endloop
  endfacet
  facet normal 0.000000e+000 0.000000e+000 -1.000000e+000
    outer loop
      vertex   4.300000e-001 -5.000000e-002 0.000000e+000
      vertex   2.500000e-001 0.000000e+000 0.000000e+000
      vertex   5.500000e-001 0.000000e+000 0.000000e+000
    endloop
  endfacet
endsolid
