solid ascii
  facet normal -1.850372e-016 0.000000e+000 1.000000e+000
    outer loop
      vertex   -4.500000e-001 5.000000e-002 -4.500000e-001
      vertex   4.500000e-001 5.000000e-002 -4.500000e-001
      vertex   -4.500000e-001 2.000000e-001 -4.500000e-001
    endloop
  endfacet
  facet normal -1.850372e-016 0.000000e+000 1.000000e+000
    outer loop
      vertex   -4.500000e-001 2.000000e-001 -4.500000e-001
      vertex   4.500000e-001 5.000000e-002 -4.500000e-001
      vertex   4.500000e-001 2.000000e-001 -4.500000e-001
    endloop
  endfacet
  facet normal -1.000000e+000 0.000000e+000 0.000000e+000
    outer loop
      vertex   4.500000e-001 5.000000e-002 -4.500000e-001
      vertex   4.500000e-001 5.000000e-002 4.500000e-001
      vertex   4.500000e-001 2.000000e-001 -4.500000e-001
    endloop
  endfacet
  facet normal -1.000000e+000 0.000000e+000 0.000000e+000
    outer loop
      vertex   4.500000e-001 2.000000e-001 -4.500000e-001
      vertex   4.500000e-001 5.000000e-002 4.500000e-001
      vertex   4.500000e-001 2.000000e-001 4.500000e-001
    endloop
  endfacet
  facet normal 2.467162e-016 7.401487e-016 -1.000000e+000
    outer loop
      vertex   4.500000e-001 5.000000e-002 4.500000e-001
      vertex   -4.500000e-001 5.000000e-002 4.500000e-001
      vertex   4.500000e-001 2.000000e-001 4.500000e-001
    endloop
  endfacet
  facet normal 3.700743e-016 0.000000e+000 -1.000000e+000
    outer loop
      vertex   4.500000e-001 2.000000e-001 4.500000e-001
      vertex   -4.500000e-001 5.000000e-002 4.500000e-001
      vertex   -4.500000e-001 2.000000e-001 4.500000e-001
    endloop
  endfacet
  facet normal 1.000000e+000 0.000000e+000 3.700743e-016
    outer loop
      vertex   -4.500000e-001 5.000000e-002 4.500000e-001
      vertex   -4.500000e-001 5.000000e-002 -4.500000e-001
      vertex   -4.500000e-001 2.000000e-001 4.500000e-001
    endloop
  endfacet
  facet normal 1.000000e+000 -0.000000e+000 3.700743e-016
    outer loop
      vertex   -4.500000e-001 2.000000e-001 4.500000e-001
      vertex   -4.500000e-001 5.000000e-002 -4.500000e-001
      vertex   -4.500000e-001 2.000000e-001 -4.500000e-001
    endloop
  endfacet
  facet normal 0.000000e+000 1.000000e+000 -0.000000e+000
    outer loop
      vertex   4.500000e-001 2.000000e-001 -4.500000e-001
      vertex   -5.000000e-001 2.000000e-001 -5.000000e-001
      vertex   -4.500000e-001 2.000000e-001 -4.500000e-001
    endloop
  endfacet
  facet normal 0.000000e+000 1.000000e+000 0.000000e+000
    outer loop
      vertex   4.500000e-001 2.000000e-001 -4.500000e-001
      vertex   5.000000e-001 2.000000e-001 -5.000000e-001
      vertex   -5.000000e-001 2.000000e-001 -5.000000e-001
    endloop
  endfacet
  facet normal -0.000000e+000 1.000000e+000 0.000000e+000
    outer loop
      vertex   4.500000e-001 2.000000e-001 -4.500000e-001
      vertex   4.500000e-001 2.000000e-001 4.500000e-001
      vertex   5.000000e-001 2.000000e-001 -5.000000e-001
    endloop
  endfacet
  facet normal 0.000000e+000 1.000000e+000 -0.000000e+000
    outer loop
      vertex   5.000000e-001 2.000000e-001 -5.000000e-001
      vertex   4.500000e-001 2.000000e-001 4.500000e-001
      vertex   5.000000e-001 2.000000e-001 5.000000e-001
    endloop
  endfacet
  facet normal 0.000000e+000 1.000000e+000 0.000000e+000
    outer loop
      vertex   5.000000e-001 2.000000e-001 5.000000e-001
      vertex   4.500000e-001 2.000000e-001 4.500000e-001
      vertex   -5.000000e-001 2.000000e-001 5.000000e-001
    endloop
  endfacet
  facet normal 0.000000e+000 1.000000e+000 0.000000e+000
    outer loop
      vertex   -5.000000e-001 2.000000e-001 5.000000e-001
      vertex   4.500000e-001 2.000000e-001 4.500000e-001
      vertex   -4.500000e-001 2.000000e-001 4.500000e-001
    endloop
  endfacet
  facet normal -0.000000e+000 1.000000e+000 -0.000000e+000
    outer loop
      vertex   -4.500000e-001 2.000000e-001 -4.500000e-001
      vertex   -5.000000e-001 2.000000e-001 5.000000e-001
      vertex   -4.500000e-001 2.000000e-001 4.500000e-001
    endloop
  endfacet
  facet normal 0.000000e+000 1.000000e+000 0.000000e+000
    outer loop
      vertex   -4.500000e-001 2.000000e-001 -4.500000e-001
      vertex   -5.000000e-001 2.000000e-001 -5.000000e-001
      vertex   -5.000000e-001 2.000000e-001 5.000000e-001
    endloop
  endfacet
  facet normal 1.000000e+000 0.000000e+000 1.665335e-016
    outer loop
      vertex   5.000000e-001 0.000000e+000 5.000000e-001
      vertex   5.000000e-001 0.000000e+000 -5.000000e-001
      vertex   5.000000e-001 2.000000e-001 5.000000e-001
    endloop
  endfacet
  facet normal 1.000000e+000 -0.000000e+000 1.665335e-016
    outer loop
      vertex   5.000000e-001 2.000000e-001 5.000000e-001
      vertex   5.000000e-001 0.000000e+000 -5.000000e-001
      vertex   5.000000e-001 2.000000e-001 -5.000000e-001
    endloop
  endfacet
  facet normal -3.885781e-016 -4.930381e-031 1.000000e+000
    outer loop
      vertex   -5.000000e-001 0.000000e+000 5.000000e-001
      vertex   5.000000e-001 0.000000e+000 5.000000e-001
      vertex   -5.000000e-001 2.000000e-001 5.000000e-001
    endloop
  endfacet
  facet normal -3.885781e-016 0.000000e+000 1.000000e+000
    outer loop
      vertex   -5.000000e-001 2.000000e-001 5.000000e-001
      vertex   5.000000e-001 0.000000e+000 5.000000e-001
      vertex   5.000000e-001 2.000000e-001 5.000000e-001
    endloop
  endfacet
  facet normal -1.000000e+000 2.775558e-016 -3.885781e-016
    outer loop
      vertex   -5.000000e-001 0.000000e+000 -5.000000e-001
      vertex   -5.000000e-001 0.000000e+000 5.000000e-001
      vertex   -5.000000e-001 2.000000e-001 -5.000000e-001
    endloop
  endfacet
  facet normal -1.000000e+000 -5.551115e-016 -5.551115e-016
    outer loop
      vertex   -5.000000e-001 2.000000e-001 -5.000000e-001
      vertex   -5.000000e-001 0.000000e+000 5.000000e-001
      vertex   -5.000000e-001 2.000000e-001 5.000000e-001
    endloop
  endfacet
  facet normal 3.330669e-016 0.000000e+000 -1.000000e+000
    outer loop
      vertex   5.000000e-001 0.000000e+000 -5.000000e-001
      vertex   -5.000000e-001 0.000000e+000 -5.000000e-001
      vertex   5.000000e-001 2.000000e-001 -5.000000e-001
    endloop
  endfacet
  facet normal 3.330669e-016 -9.244464e-032 -1.000000e+000
    outer loop
      vertex   5.000000e-001 2.000000e-001 -5.000000e-001
      vertex   -5.000000e-001 0.000000e+000 -5.000000e-001
      vertex   -5.000000e-001 2.000000e-001 -5.000000e-001
    endloop
  endfacet
  facet normal -0.000000e+000 1.000000e+000 -0.000000e+000
    outer loop
      vertex   -4.500000e-001 5.000000e-002 -4.500000e-001
      vertex   -4.500000e-001 5.000000e-002 4.500000e-001
      vertex   4.500000e-001 5.000000e-002 -4.500000e-001
    endloop
  endfacet
  facet normal 0.000000e+000 1.000000e+000 -0.000000e+000
    outer loop
      vertex   4.500000e-001 5.000000e-002 -4.500000e-001
      vertex   -4.500000e-001 5.000000e-002 4.500000e-001
      vertex   4.500000e-001 5.000000e-002 4.500000e-001
    endloop
  endfacet
  facet normal -0.000000e+000 -1.000000e+000 0.000000e+000
    outer loop
      vertex   5.000000e-001 0.000000e+000 -5.000000e-001
      vertex   5.000000e-001 0.000000e+000 5.000000e-001
      vertex   -5.000000e-001 0.000000e+000 -5.000000e-001
    endloop
  endfacet
  facet normal -0.000000e+000 -1.000000e+000 0.000000e+000
    outer loop
      vertex   -5.000000e-001 0.000000e+000 -5.000000e-001
      vertex   5.000000e-001 0.000000e+000 5.000000e-001
      vertex   -5.000000e-001 0.000000e+000 5.000000e-001
    endloop
  endfacet
endsolid
